<svg xmlns="http://www.w3.org/2000/svg" xmlns:xlink="http://www.w3.org/1999/xlink" viewBox="0 0 333.69 124.5"><defs><style>.cls-1,.cls-4,.cls-5{fill:none;}.cls-2{clip-path:url(#clip-path);}.cls-3{fill:url(#Degradado_sin_nombre_226);}.cls-4,.cls-5{stroke-miterlimit:10;stroke-width:1.86px;}.cls-4{stroke:url(#Degradado_sin_nombre_160);}.cls-5{stroke:url(#Degradado_sin_nombre_160-2);}.cls-6{opacity:0.48;}.cls-7{fill:url(#Degradado_sin_nombre_189);}.cls-8{fill:url(#Degradado_sin_nombre_187);}.cls-9{fill:url(#Degradado_sin_nombre_189-2);}.cls-10{fill:url(#Degradado_sin_nombre_187-2);}.cls-11,.cls-12,.cls-13{opacity:0.66;}.cls-11{fill:url(#Degradado_sin_nombre_189-3);}.cls-12{fill:url(#Degradado_sin_nombre_187-3);}.cls-13{fill:url(#Degradado_sin_nombre_188);}.cls-14{font-size:39px;fill:#fff;font-family:Allura-Regular, Allura;letter-spacing:0.01em;}</style><clipPath id="clip-path" transform="translate(8.46 22.64)"><polygon id="SVGID" class="cls-1" points="285.38 0 142.69 0 0 0 15.14 26.41 0 50.89 142.69 50.89 285.38 50.89 270.24 26.41 285.38 0"/></clipPath><linearGradient id="Degradado_sin_nombre_226" x1="8.46" y1="48.09" x2="293.84" y2="48.09" gradientUnits="userSpaceOnUse"><stop offset="0" stop-color="#7b531e"/><stop offset="0.05" stop-color="#b27a31"/><stop offset="0.09" stop-color="#d6943d"/><stop offset="0.11" stop-color="#e49e42"/><stop offset="0.11" stop-color="#e39e42"/><stop offset="0.19" stop-color="#c48129"/><stop offset="0.27" stop-color="#ad6c18"/><stop offset="0.33" stop-color="#9f5f0e"/><stop offset="0.4" stop-color="#9a5b0a"/><stop offset="0.59" stop-color="#c07d27"/><stop offset="0.77" stop-color="#e49e42"/><stop offset="0.84" stop-color="#c58837"/><stop offset="1" stop-color="#7b531e"/></linearGradient><linearGradient id="Degradado_sin_nombre_160" x1="-8.46" y1="4.83" x2="325.23" y2="4.83" gradientUnits="userSpaceOnUse"><stop offset="0" stop-color="#7b531e"/><stop offset="0.26" stop-color="#c59e63"/><stop offset="0.47" stop-color="#fcd696"/><stop offset="0.55" stop-color="#f2cb8c"/><stop offset="0.68" stop-color="#d6af72"/><stop offset="0.85" stop-color="#a88148"/><stop offset="1" stop-color="#7b531e"/></linearGradient><linearGradient id="Degradado_sin_nombre_160-2" x1="-8.46" y1="45.2" x2="325.23" y2="45.2" xlink:href="#Degradado_sin_nombre_160"/><linearGradient id="Degradado_sin_nombre_189" x1="198.39" y1="80.17" x2="198.39" y2="1" gradientUnits="userSpaceOnUse"><stop offset="0.32" stop-color="#fff" stop-opacity="0"/><stop offset="1" stop-color="#fff"/></linearGradient><linearGradient id="Degradado_sin_nombre_187" x1="234.97" y1="94.29" x2="234.97" y2="1" gradientUnits="userSpaceOnUse"><stop offset="0.48" stop-color="#fff" stop-opacity="0"/><stop offset="1" stop-color="#fff"/></linearGradient><linearGradient id="Degradado_sin_nombre_189-2" x1="53.39" y1="100" x2="53.39" y2="0" xlink:href="#Degradado_sin_nombre_189"/><linearGradient id="Degradado_sin_nombre_187-2" x1="62.13" y1="100" x2="62.13" y2="0" xlink:href="#Degradado_sin_nombre_187"/><linearGradient id="Degradado_sin_nombre_189-3" x1="96.93" y1="119.82" x2="96.93" y2="6.5" xlink:href="#Degradado_sin_nombre_189"/><linearGradient id="Degradado_sin_nombre_187-3" x1="112.56" y1="119.82" x2="112.56" y2="6.5" xlink:href="#Degradado_sin_nombre_187"/><linearGradient id="Degradado_sin_nombre_188" x1="120.08" y1="124.5" x2="120.08" y2="11.18" gradientUnits="userSpaceOnUse"><stop offset="0.67" stop-color="#fff" stop-opacity="0"/><stop offset="1" stop-color="#fff"/></linearGradient></defs><g id="Capa_2" data-name="Capa 2"><g id="OBJECTS"><g class="cls-2"><polygon class="cls-3" points="293.84 22.64 151.15 22.64 8.46 22.64 23.6 49.05 8.46 73.53 151.15 73.53 293.84 73.53 278.7 49.05 293.84 22.64"/><path class="cls-4" d="M-8.46,4.83H325.23" transform="translate(8.46 22.64)"/><path class="cls-5" d="M-8.46,45.2H325.23" transform="translate(8.46 22.64)"/><g class="cls-6"><rect class="cls-7" x="192.6" y="1" width="11.57" height="79.17"/><rect class="cls-8" x="209.74" y="1" width="50.45" height="93.29"/></g><g class="cls-6"><rect class="cls-9" x="47.6" width="11.57" height="100"/><rect class="cls-10" x="60.41" width="3.45" height="100"/></g><g class="cls-6"><rect class="cls-11" x="87.22" y="6.5" width="19.43" height="113.32"/><rect class="cls-12" x="109.12" y="6.5" width="6.89" height="113.32"/><rect class="cls-13" x="118.47" y="11.18" width="3.22" height="113.32"/></g></g><text class="cls-14" transform="translate(27.86 60.41) scale(0.98 1.11)">12 Octubre 2024</text></g></g></svg>