<svg xmlns="http://www.w3.org/2000/svg" xmlns:xlink="http://www.w3.org/1999/xlink" viewBox="0 0 743.47 137"><defs><style>.cls-1{fill:none;}.cls-2{clip-path:url(#clip-path);}.cls-3{fill:url(#Degradado_sin_nombre_12);}.cls-4{fill:url(#Degradado_sin_nombre_10);}.cls-5{fill:#4d1a00;}.cls-6{fill:url(#Degradado_sin_nombre_12-2);}.cls-7{fill:url(#Degradado_sin_nombre_10-2);}.cls-8{fill:url(#Degradado_sin_nombre_11);}.cls-9{fill:url(#Degradado_sin_nombre_12-3);}.cls-10{fill:url(#Degradado_sin_nombre_13);}.cls-11{fill:url(#Degradado_sin_nombre_12-4);}.cls-12{fill:url(#Degradado_sin_nombre_15);}.cls-13{fill:url(#Degradado_sin_nombre_16);}</style><clipPath id="clip-path" transform="translate(-4.64 -3.98)"><rect id="SVGID" class="cls-1" width="753" height="145"/></clipPath><linearGradient id="Degradado_sin_nombre_12" x1="99.39" y1="1164.01" x2="133.93" y2="1164.01" gradientTransform="matrix(1, 0, 0, -1, 0, 1280.98)" gradientUnits="userSpaceOnUse"><stop offset="0.27" stop-color="#4d1a00"/><stop offset="0.45" stop-color="#865100"/><stop offset="0.51" stop-color="#723d00"/><stop offset="0.6" stop-color="#5d2a00"/><stop offset="0.69" stop-color="#511e00"/><stop offset="0.78" stop-color="#4d1a00"/><stop offset="0.84" stop-color="#562300"/><stop offset="0.93" stop-color="#6e3a00"/><stop offset="1" stop-color="#865100"/></linearGradient><linearGradient id="Degradado_sin_nombre_10" x1="10.96" y1="1205.37" x2="139.78" y2="1177.98" gradientTransform="matrix(1, 0, 0, -1, 0, 1280.98)" gradientUnits="userSpaceOnUse"><stop offset="0" stop-color="#885400"/><stop offset="0.04" stop-color="#8b5704"/><stop offset="0.08" stop-color="#936111"/><stop offset="0.12" stop-color="#a07126"/><stop offset="0.16" stop-color="#b38843"/><stop offset="0.19" stop-color="#c19859"/><stop offset="0.29" stop-color="#fffce1"/><stop offset="0.36" stop-color="#ffefb7"/><stop offset="0.45" stop-color="#ffdc7a"/><stop offset="0.47" stop-color="#f7d171"/><stop offset="0.52" stop-color="#e0b458"/><stop offset="0.58" stop-color="#c18c37"/><stop offset="0.64" stop-color="#a7721e"/><stop offset="0.7" stop-color="#905c08"/><stop offset="0.75" stop-color="#885400"/></linearGradient><linearGradient id="Degradado_sin_nombre_12-2" x1="618.79" y1="1164.31" x2="653.34" y2="1164.31" xlink:href="#Degradado_sin_nombre_12"/><linearGradient id="Degradado_sin_nombre_10-2" x1="-2879.57" y1="1205.37" x2="-2750.75" y2="1177.98" gradientTransform="translate(-2137.79 1280.98) rotate(180)" xlink:href="#Degradado_sin_nombre_10"/><linearGradient id="Degradado_sin_nombre_11" x1="154.14" y1="1210.39" x2="591.68" y2="1256.38" gradientTransform="matrix(1, 0, 0, -1, 0, 1280.98)" gradientUnits="userSpaceOnUse"><stop offset="0.54" stop-color="#ffdc7a"/><stop offset="0.58" stop-color="#f0c96a"/><stop offset="0.68" stop-color="#ce9d45"/><stop offset="0.72" stop-color="#c18c37"/><stop offset="0.81" stop-color="#c18c37"/><stop offset="0.82" stop-color="#d2a249"/><stop offset="0.84" stop-color="#ebc264"/><stop offset="0.86" stop-color="#fad574"/><stop offset="0.87" stop-color="#ffdc7a"/><stop offset="0.89" stop-color="#ffefb7"/><stop offset="0.91" stop-color="#fffce1"/><stop offset="0.94" stop-color="#c19859"/><stop offset="0.95" stop-color="#b38843"/><stop offset="0.96" stop-color="#a07126"/><stop offset="0.98" stop-color="#936111"/><stop offset="0.99" stop-color="#8b5704"/><stop offset="1" stop-color="#885400"/></linearGradient><linearGradient id="Degradado_sin_nombre_12-3" x1="563.34" y1="1190.21" x2="597.88" y2="1190.21" xlink:href="#Degradado_sin_nombre_12"/><linearGradient id="Degradado_sin_nombre_13" x1="559.35" y1="1195.39" x2="648.12" y2="1214.26" gradientTransform="matrix(1, 0, 0, -1, 0, 1280.98)" gradientUnits="userSpaceOnUse"><stop offset="0.25" stop-color="#885400"/><stop offset="0.32" stop-color="#905c08"/><stop offset="0.43" stop-color="#a7721e"/><stop offset="0.52" stop-color="#c18c37"/><stop offset="0.56" stop-color="#e0b458"/><stop offset="0.6" stop-color="#f7d171"/><stop offset="0.62" stop-color="#ffdc7a"/><stop offset="0.67" stop-color="#ffefb7"/><stop offset="0.71" stop-color="#fffce1"/><stop offset="0.81" stop-color="#c19859"/><stop offset="0.82" stop-color="#b38843"/><stop offset="0.84" stop-color="#a07126"/><stop offset="0.86" stop-color="#936111"/><stop offset="0.88" stop-color="#8b5704"/><stop offset="0.9" stop-color="#885400"/><stop offset="1" stop-color="#fffce1"/></linearGradient><linearGradient id="Degradado_sin_nombre_12-4" x1="154.86" y1="1190.4" x2="189.33" y2="1190.4" xlink:href="#Degradado_sin_nombre_12"/><linearGradient id="Degradado_sin_nombre_15" x1="105.61" y1="1213.72" x2="192.96" y2="1198.32" gradientTransform="matrix(1, 0, 0, -1, 0, 1280.98)" gradientUnits="userSpaceOnUse"><stop offset="0" stop-color="#fffce1"/><stop offset="0.1" stop-color="#885400"/><stop offset="0.12" stop-color="#8b5704"/><stop offset="0.14" stop-color="#936111"/><stop offset="0.16" stop-color="#a07126"/><stop offset="0.18" stop-color="#b38843"/><stop offset="0.19" stop-color="#c19859"/><stop offset="0.29" stop-color="#fffce1"/><stop offset="0.33" stop-color="#ffefb7"/><stop offset="0.38" stop-color="#ffdc7a"/><stop offset="0.4" stop-color="#f7d171"/><stop offset="0.44" stop-color="#e0b458"/><stop offset="0.48" stop-color="#c18c37"/><stop offset="0.57" stop-color="#a7721e"/><stop offset="0.68" stop-color="#905c08"/><stop offset="0.75" stop-color="#885400"/></linearGradient><linearGradient id="Degradado_sin_nombre_16" x1="159.23" y1="1236.92" x2="373.65" y2="1214.39" gradientTransform="matrix(1, 0, 0, -1, 0, 1280.98)" gradientUnits="userSpaceOnUse"><stop offset="0" stop-color="#885400"/><stop offset="0.01" stop-color="#8b5704"/><stop offset="0.02" stop-color="#936111"/><stop offset="0.04" stop-color="#a07126"/><stop offset="0.05" stop-color="#b38843"/><stop offset="0.06" stop-color="#c19859"/><stop offset="0.16" stop-color="#fffce1"/><stop offset="0.19" stop-color="#ffefb7"/><stop offset="0.23" stop-color="#ffdc7a"/><stop offset="0.25" stop-color="#f6d170"/><stop offset="0.3" stop-color="#dfb257"/><stop offset="0.35" stop-color="#c18c37"/><stop offset="0.56" stop-color="#c18c37"/><stop offset="0.57" stop-color="#c28e38"/><stop offset="0.73" stop-color="#e3b85c"/><stop offset="0.86" stop-color="#f7d272"/><stop offset="0.94" stop-color="#ffdc7a"/></linearGradient></defs><g id="Capa_2" data-name="Capa 2"><g id="Layer_1" data-name="Layer 1"><g class="cls-2"><path class="cls-3" d="M131.2,105.27c-.61-.17-1.2-.35-1.79-.47-1-.31-2-.56-3-.78-1.18-.31-2.33-.58-3.44-.81A66.09,66.09,0,0,0,115.8,102a29.33,29.33,0,0,0-7.35-.07,11.33,11.33,0,0,0-5.42,1.89,6.32,6.32,0,0,0-1.2,1,13.89,13.89,0,0,0-2,2.77s-.07.2-.09.28-.1.35-.13.5c-1.93,8.23,7.78,11.45,18.72,12.3,10.74.86,15,3.89,15.57,11.54l-.11-26.2Z" transform="translate(-4.64 -3.98)"/><path class="cls-4" d="M133.48,131.61c-.54-7.65-4.38-10.09-15.12-10.94-10.94-.86-20.65-4.08-18.72-12.31,0-.15.08-.32.13-.5l.09-.28c.08-.21.18-.38.27-.58.33-.86.66-1.68,1-2.48,0,0,0-.1.07-.16l.3-.81c3.72-10.17,5.51-19,7-31,.27-2.19.53-4.54.77-7C96.37,62.22,89.25,53,66,45.33a85.25,85.25,0,0,0-43.73-2.4s8.1,22.76,10.41,29.69c-16.4,6.93-28,32.74-28,32.74A255.88,255.88,0,0,1,33,107.28c15.34,1.92,49.47,26.86,78.88,32.22,15.59,2.85,21.7-2.34,21.59-7.87a1.5,1.5,0,0,1,0-.22Z" transform="translate(-4.64 -3.98)"/><path class="cls-5" d="M31.91,72.94c-2.28-6.84-9.5-27.12-9.58-27.35l-.09-2.66c.09.23,8.13,22.84,10.42,29.7Z" transform="translate(-4.64 -3.98)"/><path class="cls-5" d="M720.83,72.94c2.27-6.84,9.49-27.12,9.57-27.35l.09-2.66c-.08.23-8.13,22.84-10.41,29.7Z" transform="translate(-4.64 -3.98)"/><path class="cls-6" d="M621.54,105.27c.61-.17,1.2-.35,1.79-.47,1-.31,2-.56,2.95-.78,1.19-.31,2.33-.58,3.45-.81a65.69,65.69,0,0,1,7.21-1.21,29.25,29.25,0,0,1,7.34-.07,11.41,11.41,0,0,1,5.43,1.89,6.32,6.32,0,0,1,1.2,1,8.13,8.13,0,0,1,1.86,2.63l-.17-.44a5.18,5.18,0,0,1,.28.58,2.19,2.19,0,0,1,.08.28l.14.5c1.92,8.23-7.79,11.45-18.73,12.3-10.74.86-15,3.3-15.58,11l.12-25.61Z" transform="translate(-4.64 -3.98)"/><path class="cls-7" d="M619.26,131.61c.54-7.65,4.37-10.09,15.11-10.94,10.94-.86,20.65-4.08,18.73-12.31l-.14-.5-.08-.28a6.19,6.19,0,0,0-.28-.58l-1-2.48-.06-.16-.31-.81c-3.71-10.17-5.5-19-7-31-.28-2.19-.53-4.54-.77-7,12.88-3.37,20-12.58,43.28-20.26a85.24,85.24,0,0,1,43.73-2.4s-8.1,22.76-10.4,29.69c16.39,6.93,28,32.74,28,32.74a256.12,256.12,0,0,0-28.4,1.92c-15.33,1.92-49.46,26.86-78.87,32.22-15.6,2.85-21.71-2.34-21.59-7.87,0-.07,0-.14,0-.22Z" transform="translate(-4.64 -3.98)"/><path class="cls-8" d="M597.71,81.91a12.3,12.3,0,0,0-3.35-3.52,12.72,12.72,0,0,0-1.55-.93l-.27-.13a13,13,0,0,0-2.13-.8c-6-1.76-13.34,0-18.61,1.23-2.12.5-4.39,1.08-6.87,1.74-11.4,3-27.1,7.42-52.76,14.11-31.24,8.17-80.66,13-129.49,12.5S237.84,97,206.61,85.94,159.5,72.2,155.29,81.56c.54-1.31,1-2.59,1.49-3.85,3.85-10.36,5.49-19,7-31,1.7-13.45,2.67-33.2,2.5-34.71-.58-5.28,8-9.13,17.61-7.7s30.09,8.18,50.53,12S314,32.15,374.73,31.2s139.14-13,152.77-17.31S559.31,3.8,569,4.28s17,2.9,17,6.74-.58,24,2.26,36.5a330.64,330.64,0,0,0,9,33C597.38,81,597.55,81.46,597.71,81.91Z" transform="translate(-4.64 -3.98)"/><path class="cls-9" d="M597.63,82.59c0-.15-.08-.33-.13-.51s-.09-.27-.09-.27a4.9,4.9,0,0,0-.28-.61l-.21-.39a11.9,11.9,0,0,0-2.56-2.42,11.56,11.56,0,0,0-1.55-.93l-.27-.13a12.11,12.11,0,0,0-2.13-.8c-6-1.76-13.34,0-18.61,1.23-2.12.5-4.39,1.08-6.87,1.73l-1.09.29-.5,26c.54-7.65,4.83-10,15.57-10.87C589.85,94,599.56,90.81,597.63,82.59Z" transform="translate(-4.64 -3.98)"/><path class="cls-10" d="M651.27,103.55c-3.72-10.17-5.5-19-7-31-1.71-13.46-2.67-33.21-2.5-34.72.57-5.28-8-9.13-17.61-7.69-4.82.72-26.22,6.94-35.09,9.28L587,40a72.56,72.56,0,0,0,1.24,7.55,336.16,336.16,0,0,0,9,33c.17.48.34,1,.49,1.41-.25-.39-.51-.75-.78-1.1l.21.4a4.75,4.75,0,0,1,.28.6s.07.2.09.28.1.35.13.5c1.93,8.23-7.78,11.45-18.72,12.3-10.74.86-14.57,3.3-15.12,10.94v-.36a2.81,2.81,0,0,0,0,.29,10.17,10.17,0,0,0,7.69,9.19c4.51,1.15,10.89.13,13.28-.21a54.78,54.78,0,0,0,6.76-1.37c6.83-1.82,24.19-6.46,30-8.09.6-.18,1.2-.36,1.79-.48,1-.3,2-.56,2.95-.78,1.18-.3,2.33-.58,3.45-.81a63.21,63.21,0,0,1,7.21-1.2,28.83,28.83,0,0,1,7.34-.08,11.44,11.44,0,0,1,5.42,1.89,5.5,5.5,0,0,1,1.2,1,7.8,7.8,0,0,1,1.87,2.63C652.25,106.05,651.73,104.81,651.27,103.55Z" transform="translate(-4.64 -3.98)"/><path class="cls-11" d="M159.84,77.08l-.14.06-.34.17a9.32,9.32,0,0,0-.92.55c-.4.3-.77.6-1.13.93a8.39,8.39,0,0,0-1.7,2.41,4.92,4.92,0,0,0-.29.61,2.19,2.19,0,0,0-.08.28l-.14.5c-1.92,8.22,7.79,11.44,18.73,12.3,10.74.85,15,2.74,15.5,10.39l-.43-25.17C174.73,75.93,165.27,74.69,159.84,77.08Z" transform="translate(-4.64 -3.98)"/><path class="cls-12" d="M173.83,94.89c-10.94-.86-20.65-4.08-18.73-12.3l.14-.51a2.48,2.48,0,0,1,.08-.27,4.92,4.92,0,0,1,.29-.61,8.39,8.39,0,0,1,1.7-2.41,10.61,10.61,0,0,1,1-.79v0a8.53,8.53,0,0,0-3,3.61c.54-1.31,1-2.59,1.49-3.85,3.85-10.37,5.49-19,7-31,.27-2.15.52-4.45.75-6.82a2.15,2.15,0,0,0-.86-.45c-8.87-2.34-30.27-8.56-35.09-9.29-9.65-1.43-18.18,2.42-17.61,7.7.17,1.51-.79,21.26-2.5,34.72-1.52,12-3.3,20.83-7,31-.46,1.26-1,2.5-1.5,3.89a8.15,8.15,0,0,1,1.87-2.63,5.76,5.76,0,0,1,1.2-1,11.33,11.33,0,0,1,5.42-1.89,29.25,29.25,0,0,1,7.34.07,65.69,65.69,0,0,1,7.21,1.21q1.68.35,3.45.81c1,.22,1.94.47,3,.78.59.12,1.19.3,1.79.47,5.83,1.64,23.19,6.28,30,8.09a54.93,54.93,0,0,0,6.76,1.38c2.39.34,8.77,1.36,13.28.21,5-1.29,7.57-6.46,7.63-9.69C188.33,97.66,184.53,95.74,173.83,94.89Z" transform="translate(-4.64 -3.98)"/><path class="cls-13" d="M369.53,31.25C310.62,31.47,254.3,20,234.43,16.31,214,12.46,193.54,5.74,183.9,4.28S165.71,6.7,166.29,12c.16,1.51-.8,21.26-2.5,34.71-1.52,12-3.16,20.66-7,31-.46,1.26-.95,2.54-1.49,3.85,4.21-9.36,20.08-6.67,51.32,4.37,28.63,10.13,111.65,18.24,162.92,19.89V31.25Z" transform="translate(-4.64 -3.98)"/><path class="cls-5" d="M719.66,106.62c-6.78.85-17.16,6.14-29.18,12.27-15.59,8-33.26,17-49.71,20-13.82,2.53-18.51-1.55-19.88-3.42a6,6,0,0,1-1.21-3.72v0h0c.5-7.08,3.93-9.5,14.7-10.35,10.46-.82,16.77-3.44,18.73-7.8a8.25,8.25,0,0,0,.39-5.37c0-.16-.09-.35-.14-.51s-.46-1-.46-1a8.61,8.61,0,0,0-1.76-2.37,7,7,0,0,0-1.26-1,11.82,11.82,0,0,0-5.58-2,29.32,29.32,0,0,0-7.41.07,66.74,66.74,0,0,0-7.24,1.22c-1,.2-2.06.45-3.46.8-1.08.26-2.05.51-2.94.78-.55.12-1.08.27-1.64.43l-.17.05c-6,1.68-23.69,6.41-30,8.09a54.73,54.73,0,0,1-6.73,1.37l-.36,0c-2.56.38-8.56,1.25-12.8.17a9.75,9.75,0,0,1-7.33-8.4h0c.5-7.07,3.93-9.49,14.69-10.35,10.47-.82,16.77-3.44,18.73-7.8a8.24,8.24,0,0,0,.39-5.37,5.16,5.16,0,0,0-.13-.5,8,8,0,0,0-3.37-4.09,12.43,12.43,0,0,0-1.58-1l-.19-.09-.11,0a12.3,12.3,0,0,0-2.17-.82c-6.21-1.83-14.07.08-18.77,1.23-1.91.45-4,1-6.88,1.73-4.59,1.2-10,2.66-16.23,4.36-9.44,2.57-21.2,5.76-36.53,9.75-31.26,8.19-80.84,13-129.41,12.5-49.26-.49-144.86-9.16-176-20.16-34.17-12.08-47.57-13.22-51.63-4.17,0,0-.36,1.09-.4,1.25a8.27,8.27,0,0,0,.39,5.38c2,4.36,8.27,7,18.73,7.8,11,.87,14.13,3,14.64,9.73-.08,2.93-2.42,7.78-7.26,9-4.25,1.08-10.24.2-12.81-.17l-.35,0a54.36,54.36,0,0,1-6.73-1.37c-6.33-1.68-24.06-6.42-30-8.09l-.18-.05c-.56-.16-1.09-.32-1.61-.42-.92-.28-1.89-.53-3-.79-1.38-.35-2.48-.61-3.46-.8a67.15,67.15,0,0,0-7.24-1.22,29.32,29.32,0,0,0-7.41-.07,11.72,11.72,0,0,0-5.56,1.94,6.59,6.59,0,0,0-1.27,1,12.51,12.51,0,0,0-1.81,2.35l-.06.11c-.09.18-.17.35-.26.58a2.46,2.46,0,0,0-.09.31,5.14,5.14,0,0,0-.15.55,8.27,8.27,0,0,0,.39,5.38c2,4.36,8.26,7,18.73,7.8,10.76.85,14.19,3.27,14.69,10.35h0a6,6,0,0,1-1.2,3.74c-1.37,1.87-6.06,6-19.88,3.43-16.46-3-34.13-12-49.72-20-12-6.13-22.39-11.42-29.18-12.27a187.92,187.92,0,0,0-28.43-1.3v1.33A187.72,187.72,0,0,1,33,107.94c6.67.84,17,6.11,29,12.2,15.63,8,33.34,17,49.89,20A45.44,45.44,0,0,0,120,141c7.68,0,11-2.68,12.42-4.58a7.79,7.79,0,0,0,1.49-4.84l0-.22h0c-.68-8.59-5.77-10.56-15.51-11.34-10-.78-16.27-3.27-18-7.21a6.37,6.37,0,0,1-.29-4.22c0-.13.08-.29.13-.49l.06-.17a8.54,8.54,0,0,1,1.83-2.55,5.83,5.83,0,0,1,1.14-.94,11.12,11.12,0,0,1,5.28-1.83,28.28,28.28,0,0,1,7.27.08,64.25,64.25,0,0,1,7.18,1.2c1,.2,2.06.45,3.43.8,1.07.25,2,.51,3,.78.52.11,1,.27,1.59.42l.18.06c6,1.67,23.69,6.4,30,8.09a55.78,55.78,0,0,0,6.8,1.38l.36,0a55.59,55.59,0,0,0,7.91.7,21.24,21.24,0,0,0,5.13-.55c5.35-1.37,7.94-7,8-10.32v-.09c-.62-8.43-5.07-10.13-15.48-11-10-.79-16.27-3.28-18-7.21a6.43,6.43,0,0,1-.29-4.22c0-.14.08-.29.14-.5a1.34,1.34,0,0,1,.05-.17,3.35,3.35,0,0,1,.18-.38l.08-.16a7.84,7.84,0,0,1,1.59-2.25v0c6.49-6,23.79-1.63,48.95,7.26,31.17,11,126.87,19.71,176.18,20.19q3.31,0,6.64,0c46.45,0,93-4.73,122.92-12.55,15.34-4,27.1-7.19,36.54-9.75,6.25-1.7,11.64-3.17,16.23-4.36,2.84-.75,5-1.28,6.87-1.73,4.63-1.13,12.4-3,18.45-1.24a12.81,12.81,0,0,1,2.07.78l.14.07.12.06a10.75,10.75,0,0,1,1.51.9,7.74,7.74,0,0,1,2.92,3.36c0,.16.09.31.12.46a6.41,6.41,0,0,1-.28,4.21c-1.78,3.93-8,6.43-18,7.21-9.69.77-14.78,2.73-15.5,11.22l0,.1c0,.07,0,.14,0,.21a10.78,10.78,0,0,0,8.07,9.84,21.1,21.1,0,0,0,5.12.55,55.75,55.75,0,0,0,7.92-.7l.35,0a55.41,55.41,0,0,0,6.8-1.38c6.33-1.69,24.06-6.42,30-8.09l.18-.06c.55-.16,1.07-.31,1.62-.42.91-.27,1.87-.53,2.94-.78,1.39-.35,2.45-.6,3.43-.8a63.5,63.5,0,0,1,7.18-1.2,28.82,28.82,0,0,1,7.28-.08,11.12,11.12,0,0,1,5.29,1.85,5.54,5.54,0,0,1,1.13.94,7.43,7.43,0,0,1,1.73,2.44s.25.63.28.77a6.41,6.41,0,0,1-.29,4.21c-1.77,3.93-8,6.42-18,7.21-9.77.77-14.86,2.76-15.52,11.41l0,.19a7.75,7.75,0,0,0,1.49,4.79c1.4,1.9,4.73,4.58,12.42,4.58a45.44,45.44,0,0,0,8.17-.82c16.55-3,34.26-12,49.89-20,12-6.1,22.29-11.37,29-12.2a187,187,0,0,1,28.36-1.3v-1.32A187.22,187.22,0,0,0,719.66,106.62Z" transform="translate(-4.64 -3.98)"/></g></g></g></svg>